<?xml version="1.0" encoding="UTF-8"?>
<svg id="Layer_1" data-name="Layer 1" xmlns="http://www.w3.org/2000/svg" xmlns:xlink="http://www.w3.org/1999/xlink" viewBox="0 0 631.91 229.17">
  <defs>
    <style>
      .cls-1 {
        fill: url(#linear-gradient-2);
      }

      .cls-2 {
        fill: #fff;
      }

      .cls-3 {
        fill: url(#linear-gradient-3);
      }

      .cls-4 {
        fill: url(#linear-gradient);
      }
    </style>
    <linearGradient id="linear-gradient" x1="93.75" y1="127.2" x2="48.85" y2="173.76" gradientUnits="userSpaceOnUse">
      <stop offset="0" stop-color="#e93824"/>
      <stop offset=".17" stop-color="#e93b23"/>
      <stop offset=".34" stop-color="#ea4721"/>
      <stop offset=".51" stop-color="#ec5b1e"/>
      <stop offset=".68" stop-color="#ef781a"/>
      <stop offset=".84" stop-color="#f39b15"/>
      <stop offset="1" stop-color="#f8c40f"/>
    </linearGradient>
    <linearGradient id="linear-gradient-2" x1="161.4" y1="49.93" x2="117.8" y2="87.15" xlink:href="#linear-gradient"/>
    <linearGradient id="linear-gradient-3" x1="89.64" y1="66.9" x2="108.07" y2="161.2" xlink:href="#linear-gradient"/>
  </defs>
  <path class="cls-2" d="M446.52,132.31c-1.3-1.3-2.92-1.97-4.8-1.97-1.88-.05-3.5,.58-4.82,1.9-1.32,1.3-1.97,2.88-1.97,4.71-.05,1.96,.58,3.59,1.9,4.91,1.3,1.3,2.88,1.99,4.71,2.05,1.9,0,3.51-.65,4.86-1.97,1.36-1.3,2.03-2.92,2.03-4.8,.05-1.9-.58-3.5-1.9-4.82Z"/>
  <g>
    <path class="cls-2" d="M203.1,104.64l5.33,9.55h6.36v-9.55h-11.69Zm3.35,28.54c-1.46,0-2.68-.57-3.68-1.67-.75-.83-1.14-1.93-1.14-3.06v-39.35s-11.41,0-11.41,0v15.55h-6.2v9.55h6.2v12.88c0,2.23,.42,4.33,1.29,6.27,.85,1.96,2.01,3.66,3.48,5.11,1.45,1.47,3.17,2.61,5.15,3.44,1.97,.83,4.09,1.25,6.32,1.25h8.33v-9.97h-8.33Z"/>
    <path class="cls-2" d="M165.2,104.64l5.33,9.55h6.36v-9.55h-11.69Zm3.35,28.54c-1.46,0-2.68-.57-3.68-1.67-.75-.83-1.14-1.93-1.14-3.06v-39.35s-11.41,0-11.41,0v15.55h-6.2v9.55h6.2v12.88c0,2.23,.42,4.33,1.29,6.27,.85,1.96,2.01,3.66,3.48,5.11,1.45,1.47,3.17,2.61,5.15,3.44,1.97,.83,4.09,1.25,6.32,1.25h8.33v-9.97h-8.33Z"/>
    <path class="cls-2" d="M260.97,113.06c-1.18-2.7-2.75-5.04-4.77-7.05-2.01-2.01-4.35-3.59-7.05-4.76-2.7-1.18-5.58-1.76-8.68-1.76s-5.98,.58-8.68,1.76c-2.7,1.18-5.04,2.75-7.05,4.76-1.99,2.01-3.59,4.35-4.77,7.05-1.18,2.7-1.76,5.56-1.76,8.59s.58,5.91,1.76,8.59c1.18,2.7,2.77,5.05,4.77,7.05,2.01,2.01,4.35,3.61,7.05,4.78,2.7,1.16,5.58,1.76,8.68,1.76s5.98-.6,8.68-1.76c2.7-1.18,5.04-2.77,7.05-4.78,2.01-1.99,3.59-4.35,4.77-7.05,1.18-2.68,1.76-5.54,1.76-8.59s-.58-5.89-1.76-8.59Zm-11,13.1c-.54,1.47-1.29,2.75-2.23,3.88-.94,1.11-2.03,1.97-3.26,2.61-1.35,.69-2.83,1-4.42,.93-1.33-.05-2.64-.41-3.81-1.03s-2.22-1.46-3.11-2.51c-.96-1.12-1.7-2.41-2.25-3.88-.54-1.45-.82-3.04-.82-4.77,0-1.59,.27-3.13,.82-4.6,.54-1.45,1.29-2.72,2.25-3.77,.94-1.07,2.05-1.92,3.3-2.54,1.27-.63,2.61-.94,4.04-.94s2.77,.31,4,.94c1.23,.62,2.32,1.47,3.26,2.54,.94,1.05,1.68,2.32,2.23,3.77,.54,1.47,.82,3.01,.82,4.6,0,1.72-.27,3.32-.82,4.77Z"/>
    <path class="cls-2" d="M298.32,126.64l-.09,.18c-.92,2.12-2.25,3.77-4,4.95-1.74,1.16-3.68,1.76-5.8,1.76-1.54,0-2.99-.31-4.33-.91-1.36-.6-2.52-1.43-3.48-2.5-.98-1.05-1.76-2.3-2.32-3.73-.58-1.43-.87-2.97-.87-4.64s.29-3.23,.87-4.67c.56-1.47,1.34-2.75,2.32-3.88,.96-1.11,2.12-2.01,3.48-2.66,1.34-.65,2.79-.98,4.33-.98,2.12,0,4.06,.65,5.8,1.97,1.76,1.3,3.08,3.03,4,5.15l.09,.09,9.37-6.11-.09-.09c-2.01-3.42-4.71-6.12-8.12-8.06-3.41-1.96-7.1-2.94-11.05-2.94-3.1,0-5.98,.6-8.68,1.78-2.68,1.16-5.04,2.75-7.05,4.77-1.99,1.99-3.59,4.35-4.77,7.05-1.18,2.68-1.76,5.54-1.76,8.59s.58,5.91,1.76,8.59c1.18,2.7,2.77,5.04,4.77,7.05,2.01,2.01,4.37,3.59,7.05,4.77,2.7,1.18,5.58,1.76,8.68,1.76,3.95,0,7.65-.96,11.05-2.92,3.41-1.94,6.11-4.64,8.12-8.08l.09-.07-9.29-6.11-.07-.09Z"/>
    <path class="cls-2" d="M351.11,139.7c-.83-.85-1.56-1.59-2.19-2.19-.63-.6-1.25-1.2-1.85-1.81-.6-.58-1.41-1.41-2.45-2.45-1.03-1.01-2.37-2.34-4-3.95-1.63-1.59-3.77-3.71-6.4-6.36l-3.1,10.83,9.28,9.28,.09,.09h14.1c-1.49-1.43-2.65-2.57-3.48-3.44Zm-10.36-39.52l-18.21,17.43v-34.62h-11.43v60.15h11.43v-10.65l17.7-17.7c4.4-4.42,9.31-9.28,14.69-14.6h-14.19Z"/>
    <path class="cls-2" d="M391.81,101.89c-3.21-1.59-6.54-2.39-9.98-2.39-5.83,0-10.27,2.08-13.32,6.27v-5.58h-11.69v42.96h11.69v-23.63c.24-1.38,.71-2.66,1.43-3.88,.71-1.2,1.58-2.25,2.61-3.13s2.21-1.58,3.53-2.07c1.3-.47,2.72-.72,4.2-.72,2.17,0,4.2,.54,6.11,1.63l.09,.09,4.37-7.83,1.03-1.72h-.07Z"/>
    <path class="cls-2" d="M429.26,100.18v.07c-1.2,3.44-2.32,6.61-3.35,9.55-1.03,2.92-1.99,5.67-2.92,8.24-1.2,3.44-2.28,6.52-3.26,9.24-.98,2.72-1.87,5.11-2.66,7.17-.8,2.07-1.58,3.84-2.32,5.33-.74,1.49-1.49,2.75-2.25,3.77-.74,1.11-1.52,1.97-2.36,2.63-.83,.65-1.74,1.18-2.7,1.56-.98,.36-2.05,.62-3.22,.72-1.18,.11-2.5,.16-4,.16h-.16v11.69h.16c4.87,0,8.93-.83,12.16-2.48,3.24-1.67,6.16-4.37,8.73-8.08,2.57-3.61,5-8.3,7.27-14.06,2.25-5.74,4.82-12.63,7.68-20.65,.8-2.17,1.67-4.51,2.57-6.99,.92-2.5,1.87-5.06,2.84-7.7l.09-.16h-12.3Zm-23.37,.07v-.07h-12.28l15.04,37.11,8.33-5.83-11.09-31.2Z"/>
    <path class="cls-2" d="M484.93,126.64l-.07,.18c-.92,2.12-2.26,3.77-4,4.95-1.74,1.16-3.68,1.76-5.8,1.76-1.54,0-2.99-.31-4.35-.91-1.34-.6-2.5-1.43-3.48-2.5-.96-1.05-1.74-2.3-2.32-3.73-.56-1.43-.85-2.97-.85-4.64s.29-3.23,.85-4.67c.58-1.47,1.36-2.75,2.32-3.88,.98-1.11,2.14-2.01,3.48-2.66,1.36-.65,2.81-.98,4.35-.98,2.12,0,4.06,.65,5.8,1.97,1.74,1.3,3.08,3.03,4,5.15l.07,.09,9.37-6.11-.07-.09c-2.01-3.42-4.71-6.12-8.14-8.06-3.41-1.96-7.08-2.94-11.03-2.94-3.1,0-6,.6-8.68,1.78-2.7,1.16-5.04,2.75-7.05,4.77-2.01,1.99-3.59,4.35-4.77,7.05-1.18,2.68-1.76,5.54-1.76,8.59s.58,5.91,1.76,8.59c1.18,2.7,2.75,5.04,4.77,7.05,2.01,2.01,4.35,3.59,7.05,4.77,2.68,1.18,5.58,1.76,8.68,1.76,3.95,0,7.63-.96,11.03-2.92,3.42-1.94,6.12-4.64,8.14-8.08l.07-.07-9.28-6.11-.09-.09Z"/>
    <path class="cls-2" d="M539.63,113.06c-1.18-2.7-2.77-5.04-4.77-7.05-2.01-2.01-4.37-3.59-7.05-4.76-2.7-1.18-5.58-1.76-8.68-1.76s-6,.58-8.68,1.76c-2.7,1.18-5.04,2.75-7.05,4.76s-3.59,4.35-4.77,7.05c-1.18,2.7-1.76,5.56-1.76,8.59s.58,5.91,1.76,8.59c1.18,2.7,2.75,5.05,4.77,7.05,2.01,2.01,4.35,3.61,7.05,4.78,2.68,1.16,5.58,1.76,8.68,1.76s5.98-.6,8.68-1.76c2.68-1.18,5.04-2.77,7.05-4.78,1.99-1.99,3.59-4.35,4.77-7.05,1.18-2.68,1.76-5.54,1.76-8.59s-.58-5.89-1.76-8.59Zm-11,13.1c-.54,1.47-1.29,2.75-2.23,3.88-.96,1.11-2.05,1.97-3.28,2.61-1.23,.63-2.55,.94-3.99,.94s-2.79-.31-4.04-.94c-1.27-.63-2.36-1.5-3.32-2.61-.94-1.12-1.68-2.41-2.23-3.88-.54-1.45-.82-3.04-.82-4.77,0-1.59,.27-3.13,.82-4.6,.54-1.45,1.29-2.72,2.23-3.77,.96-1.07,2.05-1.92,3.32-2.54,1.25-.63,2.61-.94,4.04-.94s2.75,.31,3.99,.94c1.23,.62,2.32,1.47,3.28,2.54,.94,1.05,1.68,2.32,2.23,3.77,.54,1.47,.82,3.01,.82,4.6,0,1.72-.27,3.32-.82,4.77Z"/>
    <path class="cls-2" d="M606.09,111.04c-.51-2.14-1.34-4.08-2.48-5.8-1.14-1.7-2.66-3.1-4.51-4.17-1.87-1.05-4.15-1.58-6.83-1.58-2.25,0-4.37,.53-6.4,1.61-2.05,1.07-3.86,2.66-5.47,4.77-.22,.29-.45,.63-.69,1.03-1.09-2.1-2.63-3.86-4.64-5.29-1.99-1.41-4.6-2.12-7.81-2.12-2.99,0-5.71,.96-8.17,2.9l-.09,.16c.92,1.54,1.7,2.9,2.32,4.09,.58,1.03,1.11,1.96,1.56,2.81,.45,.87,.71,1.29,.78,1.29,1.03,0,1.96,.16,2.79,.53,.82,.34,1.56,.82,2.19,1.45,.62,.63,1.11,1.36,1.45,2.16,.34,.82,.53,1.67,.53,2.59v25.67h11.41v-25.67c0-1.85,.67-3.44,1.99-4.78,1.3-1.36,2.92-2.03,4.8-2.03,.92,0,1.79,.2,2.63,.56,.83,.38,1.54,.87,2.14,1.5,.6,.63,1.09,1.36,1.43,2.16,.34,.82,.51,1.67,.51,2.59l-.09,25.67h11.43v-25.6c0-2.17-.25-4.35-.78-6.5Zm-60.41-10.85v42.96h11.43v-42.96h-11.43Z"/>
    <g>
      <polygon class="cls-4" points="93.05 141.34 25.04 185.04 84.81 128.16 93.05 141.34"/>
      <polygon class="cls-1" points="172.89 44.12 112.34 102.76 102.92 88.9 172.89 44.12"/>
      <polygon class="cls-3" points="172.87 44.13 55.5 81.53 93.07 141.31 25.06 185.06 143.25 148.32 102.94 88.88 172.87 44.13"/>
    </g>
  </g>
</svg>